<?xml version="1.0" encoding="utf-8"?>
<!-- Generator: Adobe Illustrator 15.1.0, SVG Export Plug-In  -->
<!DOCTYPE svg PUBLIC "-//W3C//DTD SVG 1.1//EN" "http://www.w3.org/Graphics/SVG/1.1/DTD/svg11.dtd" [
	<!ENTITY ns_flows "http://ns.adobe.com/Flows/1.0/">
]>
<svg version="1.1"
	 xmlns="http://www.w3.org/2000/svg" xmlns:xlink="http://www.w3.org/1999/xlink" xmlns:a="http://ns.adobe.com/AdobeSVGViewerExtensions/3.0/"
	 x="0px" y="0px" width="171px" height="37px" viewBox="0.044 0.039 171 37" enable-background="new 0.044 0.039 171 37"
	 xml:space="preserve">
<defs>
</defs>
<path fill="#B72B00" d="M47.844,13.539l-0.2-0.1l0,0c-0.8-0.3-1.6-0.8-2.1-1.5c-0.3-0.3-0.4-0.8-0.3-1.2c0-0.4,0.2-0.8,0.5-1.2
	c0.5-0.7,1.3-1.2,2.1-1.1c0.9,0.1,1.7,0.4,2.5,0.7c0.4,0.1,0.8,0.3,1.2,0.4c-0.5,0.4-1,0.8-1.4,1.2"/>
<path fill="#B72B00" d="M71.245,9.939c0.4,0,0.7,0.2,0.6,0.5c-0.1,0.3-0.3,0.6-0.6,0.9c-0.3,0.2-0.6,0.4-1,0.6
	c-0.5,0.3-1,0.5-1.5,0.6c-0.3-0.8-0.7-1.6-1.2-2.3l0.1-0.1c0.8,0,1.6-0.2,2.4-0.2C70.544,9.939,70.944,9.939,71.245,9.939z"/>
<path fill="#B72B00" d="M67.645,10.239c-0.1-0.2-0.3-0.5-0.5-0.7c1.4-0.3,2.8-0.7,4.2-0.8c0.4,0,0.9,0,1.2,0.1
	c0.4,0.1,0.5,0.5,0.5,0.9c0,0.9-0.4,1.7-1,2.3s-1.4,1-2.3,1.3c-0.3,0.1-0.5,0.2-0.8,0.2"/>
<path fill="#FF5100" d="M72.645,8.539c-0.5-0.2-1-0.2-1.4-0.2c-1.1,0.1-2.1,0.3-3.2,0.6c-0.3-0.4-0.4-1-0.5-1.4l-0.5-1.7l-1-3.4
	c-0.2-0.6-0.3-1.1-0.5-1.7c-0.1-0.3-0.3-0.6-0.6-0.7c-0.3,0-0.6,0.1-0.9,0.2c-1.1,0.4-2.2,1-3.3,0.5c-0.5-0.2-1-0.6-1.6-0.7
	c-0.3-0.1-0.7,0-1,0.2c-0.3,0.1-0.5,0.4-0.7,0.6c-0.8,0.9-1.5,1.8-2.3,2.7c-1.4,1.8-2.9,3.8-4.2,5.6c-0.2-0.1-0.5-0.2-0.7-0.3
	c-0.8-0.3-1.7-0.7-2.6-0.8c-0.5,0-1,0-1.4,0.3c-0.4,0.2-0.8,0.6-1,1c-0.2,0.4-0.5,0.8-0.5,1.3s0.1,1,0.4,1.3
	c0.6,0.7,1.7,1.3,2.5,1.6l0.1-0.1c-0.8-0.3-1.9-0.9-2.4-1.6c-0.3-0.3-0.4-0.8-0.3-1.2c0-0.4,0.2-0.8,0.5-1.2
	c0.5-0.7,1.3-1.2,2.1-1.1c0.9,0.1,1.7,0.4,2.5,0.7c0.4,0.1,0.8,0.3,1.2,0.4c1.3,0.5,2.6,1,4,1.2c1.8,0.4,3.6,0.4,5.4,0.1
	c1.8-0.2,3.6-0.6,5.3-1c0.3-0.1,0.7-0.2,1-0.3c1.4-0.3,2.8-0.7,4.2-0.8c0.4,0,0.9,0,1.2,0.1c0.5,0.3,0.6,0.7,0.6,1.1
	c0,0.9-0.4,1.7-1,2.3s-1.4,1-2.3,1.3c-0.3,0.1-0.5,0.2-0.8,0.2c0,0,0,0.1,0,0.2c1.1-0.3,2.3-0.7,3.2-1.5c0.7-0.6,1.1-1.5,1.2-2.5
	C73.444,9.339,73.145,8.739,72.645,8.539z"/>
<path fill="#372922" d="M71.844,10.439c0.1-0.4-0.2-0.5-0.6-0.5c-0.4,0-0.8,0-1.2,0c-0.8,0.1-1.6,0.2-2.4,0.2
	c0.8-0.1,1.5-0.4,2.3-0.5c0.4-0.1,0.8-0.1,1.2-0.1c0.2,0,0.4,0,0.6,0.2c0.2,0.1,0.3,0.5,0.3,0.7c-0.1,0.5-0.4,0.8-0.7,1
	c-0.3,0.3-0.7,0.5-1.1,0.6c-0.5,0.2-1,0.4-1.5,0.5c0,0,0,0,0-0.1c0,0,0,0,0-0.1c0.5-0.2,1-0.4,1.5-0.6c0.4-0.2,0.7-0.4,1-0.6
	C71.544,11.039,71.844,10.739,71.844,10.439z"/>
<path fill="#372922" d="M64.145,3.439c0,0.3,0.1,0.5,0.3,0.7c0.1,0.2,0.3,0.4,0.5,0.6c-0.3,0-0.6-0.2-0.8-0.4
	c-0.2-0.2-0.3-0.5-0.4-0.8c-0.1-0.6-0.1-1.2,0.2-1.7c0,0.3,0,0.6,0.1,0.8C64.044,2.939,64.044,3.239,64.145,3.439z"/>
<path fill="#372922" d="M59.444,8.439c1.1,0.1,2.1,0.3,3.2,0.5c-1.1,0.3-2.2,0.2-3.3,0.1c-1.1-0.1-2.1-0.2-3.2-0.3
	C57.145,8.439,58.344,8.339,59.444,8.439z"/>
<path fill="#372922" d="M60.745,7.839c0.7,0,1.5,0.2,2.2,0.3c0.7,0.1,1.4,0.2,2.1,0.3c-0.7,0.1-1.5,0.1-2.2,0
	c-0.7-0.1-1.4-0.2-2.1-0.2c-1.4-0.1-2.9-0.1-4.3-0.2C57.745,7.839,59.245,7.739,60.745,7.839z"/>
<path fill="#372922" d="M58.044,3.939c-0.6,0.5-1.3,0.9-2,1.1c0.3-0.2,0.6-0.5,0.9-0.7c0.3-0.2,0.6-0.5,0.9-0.7
	c0.6-0.5,1-1.1,1.3-1.8c0,0.4-0.1,0.8-0.3,1.1C58.645,3.339,58.344,3.639,58.044,3.939z"/>
<path fill="#372922" d="M60.044,6.939c2.3,0,4.7,0.1,6.9,0.9c-1.1-0.3-2.3-0.5-3.4-0.6c-1.2-0.1-2.3-0.1-3.5-0.1s-2.3,0.1-3.5,0.2
	c-1.2,0.1-2.3,0.2-3.5,0.4C55.344,7.139,57.745,7.039,60.044,6.939z"/>
<path fill="#372922" d="M66.645,9.239c-1.2,0.3-2.4,0.5-3.5,0.6c-1.3,0.2-2.5,0.2-3.8,0.2c-1.2,0-2.5,0-3.7-0.1
	c-1.2-0.1-2.5-0.3-3.6-0.8c1.2,0.3,2.4,0.5,3.6,0.6c1.2,0.1,2.5,0.1,3.7,0.1c1.2,0,2.5-0.1,3.7-0.1
	C64.245,9.539,65.444,9.539,66.645,9.239z"/>
<path fill="#372922" d="M48.344,12.339c0.1,0,0.1,0.1,0.2,0.1c-0.1,0.1-0.2,0.2-0.2,0.3h-0.1c-0.4-0.1-0.8-0.3-1.2-0.5
	c-0.4-0.3-0.7-0.6-0.9-1.1c-0.2-0.5-0.1-1,0.1-1.3c0,0.4,0.1,0.8,0.3,1.2c0.2,0.3,0.5,0.6,0.8,0.8
	C47.645,11.939,47.944,12.139,48.344,12.339z"/>
<polygon fill="#FF5100" points="170.945,6.039 165.745,30.039 159.044,30.039 164.245,6.039 "/>
<path fill="#FF5100" d="M159.044,16.239c-2.7,5.6-7.4,6.7-8.9,6.7h-3.5l-1.6,7h-6.7l5.2-24h10.8
	C158.445,6.039,161.245,11.739,159.044,16.239z M152.745,14.839c0.8-3-0.601-2.8-0.9-2.8h-2.899l-1.101,5h3
	C151.144,17.039,152.245,16.539,152.745,14.839z"/>
<path fill="#FF5100" d="M133.644,6.039l2.7,24h-6.8l-0.2-4h-5.899l-2.2,4h-6.8l13.1-24H133.644z M129.245,21.039l-0.3-7.6l-3.5,7.6
	H129.245z"/>
<path fill="#FF5100" d="M114.745,15.139c-0.7,3.2-3.8,5.5-4.5,6l2.899,8.9h-7.6l-2.4-7h-2l-1.6,7h-6.7l5.2-24h11.8
	C111.044,6.039,116.445,7.739,114.745,15.139z M108.044,14.739c0.7-2.9-0.6-2.8-0.9-2.8h-3.5l-1.1,5h3.7
	C106.344,17.039,107.644,16.039,108.044,14.739z"/>
<polygon fill="#FFFFFF" points="94.844,6.039 89.844,30.039 84.645,30.039 78.544,18.239 76.044,30.039 69.544,30.039 74.544,6.039 
	79.745,6.039 85.745,18.139 88.344,6.039 "/>
<path fill="#FFFFFF" d="M35.145,6.039h-25.4c-0.8,0-1.5,0.8-1.6,1.5s0.3,1.5,1,1.5h8.3c0.7,0,1.4,0.3,1.2,1c-0.1,0.7-0.5,1-1.3,1
	h-3.4c-0.7,0-1.6,0.7-1.7,1.5c-0.1,0.7,0.1,1.5,0.9,1.5h5.9c0.7,0,1.2,0.8,1.1,1.5s-0.9,1.5-1.6,1.5h-8.8c-0.7,0-1.4,0.8-1.6,1.5
	c-0.2,0.7,0.5,1.5,1.2,1.5h3.9c0.7,0,1.2,0.3,1.1,1c-0.1,0.7-0.8,1-1.6,1h-1.7c-0.7,0-1.5,0.8-1.6,1.5s0.4,1.5,1.1,1.5h5.4
	c0.7,0,1.4,0.3,1.2,1.1c-0.1,0.7-0.7,0.9-1.4,0.9h-4.5c-0.7,0-1.5,0.7-1.7,1.5c-0.1,0.7,0.3,1.5,1,1.5h20.5c3,0,13.4-2.3,13.4-14.2
	C44.444,6.939,36.745,6.039,35.145,6.039z M37.245,19.839c-1,4-5,5.2-5.9,5.2h-2.3l2.7-13h2.3
	C34.844,12.039,39.145,12.439,37.245,19.839z"/>
<path fill="#FFFFFF" d="M7.044,11.039h3c0.7,0,1.2,0.8,1.1,1.5s-0.8,1.5-1.5,1.5h-3c-0.7,0-1.2-0.8-1.1-1.5
	S6.344,11.039,7.044,11.039z"/>
<path fill="#FFFFFF" d="M5.544,27.039h1.9c0.7,0,1.2,0.8,1.1,1.5s-0.8,1.5-1.6,1.5h-1.9c-0.7,0-1.2-0.8-1.1-1.5
	C4.145,27.839,4.844,27.039,5.544,27.039z"/>
<path fill="#FFFFFF" d="M7.245,22.039c0.7,0,1.2,0.8,1.1,1.5c-0.1,0.7-0.9,1.5-1.6,1.5h-3.7c-0.7,0-1.2-0.8-1.1-1.5s0.8-1.5,1.6-1.5
	H7.245z"/>
<path fill="#FFFFFF" d="M6.044,17.039c0.7,0,1.1,0.8,1,1.5s-0.9,1.5-1.6,1.5h-4.4c-0.7,0-1.2-0.8-1-1.5s1-1.5,1.7-1.5H6.044z"/>
<path fill="#FFFFFF" d="M69.044,13.639c-0.1-0.3-0.2-0.7-0.3-1v-0.1c-0.3-0.8-0.7-1.6-1.2-2.3c-0.1-0.2-0.3-0.5-0.5-0.7
	c-0.3,0.1-0.7,0.2-1,0.3c-1.7,0.4-3.5,0.8-5.3,1c-1.8,0.2-3.6,0.3-5.4-0.1c-1.4-0.3-2.7-0.7-4-1.2c-0.5,0.4-1,0.8-1.4,1.2
	c-0.5,0.5-1,1.1-1.5,1.7c-0.1,0.1-0.2,0.2-0.2,0.3c-0.2,0.2-0.3,0.5-0.5,0.7c-0.4,0.6-0.7,1.2-1,1.8c-0.8,1.7-1.2,3.5-1.2,5.3
	c0,1.3,0.2,2.6,0.6,3.8s1,2.3,1.8,3.2c0.8,0.9,1.8,1.7,2.9,2.2c1.2,0.5,2.5,0.8,4,0.8c1.9,0,3.8-0.4,5.5-1.2
	c1.8-0.8,3.3-1.899,4.6-3.2c1.3-1.3,2.4-2.8,3.2-4.5c0.8-1.699,1.2-3.5,1.2-5.3c0-0.9-0.1-1.8-0.3-2.6 M62.245,19.539
	c-0.3,0.9-0.7,1.8-1.2,2.6c-0.5,0.801-1.2,1.4-2,1.9s-1.8,0.8-2.8,0.8c-0.7,0-1.3-0.1-1.7-0.399c-0.5-0.301-0.9-0.601-1.2-1
	c-0.3-0.4-0.5-0.9-0.7-1.5c-0.2-0.601-0.2-1.2-0.2-1.801c0-0.899,0.1-1.8,0.4-2.7c0.3-0.9,0.7-1.8,1.2-2.5c0.5-0.8,1.2-1.4,2-1.9
	s1.7-0.7,2.8-0.7c0.7,0,1.3,0.1,1.8,0.4c0.5,0.3,0.9,0.6,1.2,1c0.3,0.4,0.5,0.9,0.7,1.5c0.2,0.6,0.2,1.1,0.2,1.8
	C62.645,17.739,62.544,18.639,62.245,19.539z"/>
</svg>
